<?xml version="1.0" encoding="UTF-8"?>
<!DOCTYPE svg PUBLIC "-//W3C//DTD SVG 1.1//EN" "http://www.w3.org/Graphics/SVG/1.1/DTD/svg11.dtd">
<svg xmlns="http://www.w3.org/2000/svg" version="1.1" width="1000px" height="1000px" style="shape-rendering:geometricPrecision; text-rendering:geometricPrecision; image-rendering:optimizeQuality; fill-rule:evenodd; clip-rule:evenodd" xmlns:xlink="http://www.w3.org/1999/xlink">
<g><path style="opacity:0.004" fill="#fefffe" d="M 791.5,31.5 C 793.337,31.6395 793.67,32.3061 792.5,33.5C 791.702,33.0431 791.369,32.3764 791.5,31.5 Z"/></g>
<g><path style="opacity:0.004" fill="#fefffe" d="M 385.5,43.5 C 387.337,43.6395 387.67,44.3061 386.5,45.5C 385.702,45.0431 385.369,44.3764 385.5,43.5 Z"/></g>
<g><path style="opacity:0.004" fill="#fefffe" d="M 437.5,59.5 C 439.337,59.6395 439.67,60.3061 438.5,61.5C 437.702,61.0431 437.369,60.3764 437.5,59.5 Z"/></g>
<g><path style="opacity:0.004" fill="#fefffe" d="M 161.5,69.5 C 163.337,69.6395 163.67,70.3061 162.5,71.5C 161.702,71.0431 161.369,70.3764 161.5,69.5 Z"/></g>
<g><path style="opacity:0.004" fill="#fefffe" d="M 455.5,83.5 C 457.337,83.6395 457.67,84.3061 456.5,85.5C 455.702,85.0431 455.369,84.3764 455.5,83.5 Z"/></g>
<g><path style="opacity:0.004" fill="#fefffe" d="M 67.5,91.5 C 69.337,91.6395 69.6704,92.3061 68.5,93.5C 67.7025,93.0431 67.3691,92.3764 67.5,91.5 Z"/></g>
<g><path style="opacity:0.004" fill="#fefffe" d="M 991.5,115.5 C 993.337,115.639 993.67,116.306 992.5,117.5C 991.702,117.043 991.369,116.376 991.5,115.5 Z"/></g>
<g><path style="opacity:0.004" fill="#fefffe" d="M 195.5,137.5 C 197.337,137.639 197.67,138.306 196.5,139.5C 195.702,139.043 195.369,138.376 195.5,137.5 Z"/></g>
<g><path style="opacity:0.004" fill="#fefffe" d="M 201.5,157.5 C 203.337,157.639 203.67,158.306 202.5,159.5C 201.702,159.043 201.369,158.376 201.5,157.5 Z"/></g>
<g><path style="opacity:0.004" fill="#fefffe" d="M 281.5,163.5 C 283.337,163.639 283.67,164.306 282.5,165.5C 281.702,165.043 281.369,164.376 281.5,163.5 Z"/></g>
<g><path style="opacity:0.004" fill="#fefffe" d="M 869.5,177.5 C 871.337,177.639 871.67,178.306 870.5,179.5C 869.702,179.043 869.369,178.376 869.5,177.5 Z"/></g>
<g><path style="opacity:0.004" fill="#fefffe" d="M 679.5,179.5 C 681.337,179.639 681.67,180.306 680.5,181.5C 679.702,181.043 679.369,180.376 679.5,179.5 Z"/></g>
<g><path style="opacity:0.004" fill="#fefffe" d="M 755.5,183.5 C 757.337,183.639 757.67,184.306 756.5,185.5C 755.702,185.043 755.369,184.376 755.5,183.5 Z"/></g>
<g><path style="opacity:0.004" fill="#fefffe" d="M 729.5,223.5 C 731.337,223.639 731.67,224.306 730.5,225.5C 729.702,225.043 729.369,224.376 729.5,223.5 Z"/></g>
<g><path style="opacity:0.004" fill="#fefffe" d="M 177.5,307.5 C 179.337,307.639 179.67,308.306 178.5,309.5C 177.702,309.043 177.369,308.376 177.5,307.5 Z"/></g>
<g><path style="opacity:0.004" fill="#fefffe" d="M 359.5,361.5 C 361.337,361.639 361.67,362.306 360.5,363.5C 359.702,363.043 359.369,362.376 359.5,361.5 Z"/></g>
<g><path style="opacity:0.004" fill="#fefffe" d="M 311.5,369.5 C 313.337,369.639 313.67,370.306 312.5,371.5C 311.702,371.043 311.369,370.376 311.5,369.5 Z"/></g>
<g><path style="opacity:0.004" fill="#fefffe" d="M 181.5,375.5 C 183.337,375.639 183.67,376.306 182.5,377.5C 181.702,377.043 181.369,376.376 181.5,375.5 Z"/></g>
<g><path style="opacity:0.004" fill="#fefffe" d="M 875.5,387.5 C 877.337,387.639 877.67,388.306 876.5,389.5C 875.702,389.043 875.369,388.376 875.5,387.5 Z"/></g>
<g><path style="opacity:0.004" fill="#fefffe" d="M 473.5,393.5 C 475.337,393.639 475.67,394.306 474.5,395.5C 473.702,395.043 473.369,394.376 473.5,393.5 Z"/></g>
<g><path style="opacity:0.004" fill="#fefffe" d="M 981.5,395.5 C 983.337,395.639 983.67,396.306 982.5,397.5C 981.702,397.043 981.369,396.376 981.5,395.5 Z"/></g>
<g><path style="opacity:0.004" fill="#fefffe" d="M 51.5,403.5 C 53.337,403.639 53.6704,404.306 52.5,405.5C 51.7025,405.043 51.3691,404.376 51.5,403.5 Z"/></g>
<g><path style="opacity:0.004" fill="#fefffe" d="M 781.5,407.5 C 783.337,407.639 783.67,408.306 782.5,409.5C 781.702,409.043 781.369,408.376 781.5,407.5 Z"/></g>
<g><path style="opacity:0.004" fill="#fefffe" d="M 125.5,409.5 C 127.337,409.639 127.67,410.306 126.5,411.5C 125.702,411.043 125.369,410.376 125.5,409.5 Z"/></g>
<g><path style="opacity:0.004" fill="#fefffe" d="M 165.5,419.5 C 167.337,419.639 167.67,420.306 166.5,421.5C 165.702,421.043 165.369,420.376 165.5,419.5 Z"/></g>
<g><path style="opacity:0.978" fill="#050505" d="M 311.5,427.5 C 316.5,427.5 321.5,427.5 326.5,427.5C 329.372,428.325 332.372,429.159 335.5,430C 336.138,431.707 336.138,433.54 335.5,435.5C 335.5,436.833 335.5,438.167 335.5,439.5C 334.275,440.152 333.608,441.319 333.5,443C 332.981,444.807 332.981,446.307 333.5,447.5C 333.5,448.833 333.5,450.167 333.5,451.5C 326.833,451.5 320.167,451.5 313.5,451.5C 313.413,454.578 312.08,456.911 309.5,458.5C 307.787,459.635 307.12,461.302 307.5,463.5C 307.5,463.833 307.5,464.167 307.5,464.5C 306.596,465.209 306.263,466.209 306.5,467.5C 313.255,466.877 319.588,467.544 325.5,469.5C 325.5,470.833 325.5,472.167 325.5,473.5C 323.824,474.183 323.157,475.517 323.5,477.5C 323.243,480.932 322.576,484.266 321.5,487.5C 319.833,487.5 318.167,487.5 316.5,487.5C 314.429,486.191 311.929,485.525 309,485.5C 306.071,485.525 303.571,486.191 301.5,487.5C 300.424,490.734 299.757,494.068 299.5,497.5C 297.824,498.183 297.157,499.517 297.5,501.5C 295.926,503.102 295.259,505.102 295.5,507.5C 295.5,509.5 295.5,511.5 295.5,513.5C 293.824,514.183 293.157,515.517 293.5,517.5C 292.424,520.734 291.757,524.068 291.5,527.5C 289.824,528.183 289.157,529.517 289.5,531.5C 287.877,539.957 285.877,548.29 283.5,556.5C 282.414,556.62 281.747,557.287 281.5,558.5C 280.533,560.762 279.866,563.095 279.5,565.5C 279.5,567.5 279.5,569.5 279.5,571.5C 269.5,571.5 259.5,571.5 249.5,571.5C 249.5,569.833 249.5,568.167 249.5,566.5C 251.344,564.721 252.01,562.388 251.5,559.5C 251.5,559.167 251.5,558.833 251.5,558.5C 252.924,556.485 253.59,554.152 253.5,551.5C 255.04,549.162 255.706,546.495 255.5,543.5C 256.458,541.698 257.125,539.698 257.5,537.5C 258.768,535.095 259.435,532.428 259.5,529.5C 259.5,527.833 259.5,526.167 259.5,524.5C 260.376,524.631 261.043,524.298 261.5,523.5C 262.106,521.291 262.773,519.124 263.5,517C 262.906,516.536 262.239,516.369 261.5,516.5C 262.833,513.167 264.167,509.833 265.5,506.5C 266.924,504.485 267.59,502.152 267.5,499.5C 267.5,498.833 267.5,498.167 267.5,497.5C 269.105,494.88 270.438,492.047 271.5,489C 270.906,488.536 270.239,488.369 269.5,488.5C 265.03,487.514 260.363,487.181 255.5,487.5C 254.587,485.914 254.587,484.414 255.5,483C 254.906,482.536 254.239,482.369 253.5,482.5C 254.167,481.833 254.833,481.167 255.5,480.5C 256.924,478.485 257.59,476.152 257.5,473.5C 258.371,470.997 259.037,468.33 259.5,465.5C 259.833,465.5 260.167,465.5 260.5,465.5C 260.611,466.117 260.944,466.617 261.5,467C 266.167,467.667 270.833,467.667 275.5,467C 276.973,466.29 277.64,465.124 277.5,463.5C 278.768,461.095 279.435,458.428 279.5,455.5C 279.614,453.282 280.28,451.282 281.5,449.5C 282.674,448.486 283.34,447.153 283.5,445.5C 288.532,437.152 295.866,431.819 305.5,429.5C 308.01,429.946 310.01,429.28 311.5,427.5 Z"/></g>
<g><path style="opacity:0.047" fill="#c6bdbd" d="M 311.5,427.5 C 310.01,429.28 308.01,429.946 305.5,429.5C 306.918,427.692 308.918,427.025 311.5,427.5 Z"/></g>
<g><path style="opacity:0.22" fill="#454345" d="M 326.5,427.5 C 330.833,427.5 335.167,427.5 339.5,427.5C 339.181,430.806 337.847,433.473 335.5,435.5C 336.138,433.54 336.138,431.707 335.5,430C 332.372,429.159 329.372,428.325 326.5,427.5 Z"/></g>
<g><path style="opacity:0.004" fill="#fefffe" d="M 9.5,441.5 C 11.337,441.639 11.6704,442.306 10.5,443.5C 9.70245,443.043 9.36912,442.376 9.5,441.5 Z"/></g>
<g><path style="opacity:0.149" fill="#a8a8a7" d="M 335.5,439.5 C 336.036,442.698 335.369,445.365 333.5,447.5C 332.981,446.307 332.981,444.807 333.5,443C 333.608,441.319 334.275,440.152 335.5,439.5 Z"/></g>
<g><path style="opacity:0.004" fill="#f4f6f5" d="M 283.5,445.5 C 283.34,447.153 282.674,448.486 281.5,449.5C 281.157,447.517 281.824,446.183 283.5,445.5 Z"/></g>
<g><path style="opacity:0.333" fill="#827d7b" d="M 279.5,455.5 C 279.435,458.428 278.768,461.095 277.5,463.5C 276.964,460.302 277.631,457.635 279.5,455.5 Z"/></g>
<g><path style="opacity:0.004" fill="#d1d0d1" d="M 309.5,458.5 C 309.923,460.781 309.256,462.448 307.5,463.5C 307.12,461.302 307.787,459.635 309.5,458.5 Z"/></g>
<g><path style="opacity:0.004" fill="#fefffe" d="M 955.5,461.5 C 957.337,461.639 957.67,462.306 956.5,463.5C 955.702,463.043 955.369,462.376 955.5,461.5 Z"/></g>
<g><path style="opacity:0.212" fill="#6b6466" d="M 463.5,465.5 C 458.833,465.5 454.167,465.5 449.5,465.5C 451.397,464.195 453.731,463.529 456.5,463.5C 459.269,463.529 461.603,464.195 463.5,465.5 Z"/></g>
<g><path style="opacity:0.031" fill="#7b7877" d="M 749.5,464.5 C 744.93,465.441 740.263,465.774 735.5,465.5C 737.397,464.195 739.731,463.529 742.5,463.5C 745.025,463.503 747.359,463.837 749.5,464.5 Z"/></g>
<g><path style="opacity:0.341" fill="#bebdbb" d="M 277.5,463.5 C 277.64,465.124 276.973,466.29 275.5,467C 270.833,467.667 266.167,467.667 261.5,467C 260.944,466.617 260.611,466.117 260.5,465.5C 266.387,465.958 272.054,465.292 277.5,463.5 Z"/></g>
<g><path style="opacity:0.208" fill="#bebcbc" d="M 423.5,473.5 C 423.808,471.076 423.474,468.743 422.5,466.5C 405.211,467.32 387.877,467.82 370.5,468C 369.944,468.383 369.611,468.883 369.5,469.5C 367.824,468.817 367.157,467.483 367.5,465.5C 386.833,465.5 406.167,465.5 425.5,465.5C 426.036,468.698 425.369,471.365 423.5,473.5 Z"/></g>
<g><path style="opacity:0.971" fill="#060505" d="M 442.5,465.5 C 444.833,465.5 447.167,465.5 449.5,465.5C 454.167,465.5 458.833,465.5 463.5,465.5C 463.5,468.5 463.5,471.5 463.5,474.5C 462.691,472.708 462.191,470.708 462,468.5C 461.502,471.482 461.335,474.482 461.5,477.5C 460.424,480.734 459.757,484.068 459.5,487.5C 457.824,488.183 457.157,489.517 457.5,491.5C 457.5,492.167 457.5,492.833 457.5,493.5C 455.833,493.5 454.167,493.5 452.5,493.5C 450.952,492.206 448.952,491.539 446.5,491.5C 443.473,491.287 440.807,491.953 438.5,493.5C 438.167,493.5 437.833,493.5 437.5,493.5C 434.99,493.054 432.99,493.72 431.5,495.5C 428.802,495.845 426.802,497.178 425.5,499.5C 422.5,500.5 420.5,502.5 419.5,505.5C 418.478,507.544 417.478,509.544 416.5,511.5C 416.607,509.621 416.107,509.288 415,510.5C 414.392,512.154 413.892,513.821 413.5,515.5C 413.5,515.833 413.5,516.167 413.5,516.5C 412.069,517.78 411.402,519.447 411.5,521.5C 411.5,522.833 411.5,524.167 411.5,525.5C 409.824,526.183 409.157,527.517 409.5,529.5C 408.883,529.611 408.383,529.944 408,530.5C 407.263,534.87 406.43,539.204 405.5,543.5C 403.96,545.838 403.294,548.505 403.5,551.5C 403.5,551.833 403.5,552.167 403.5,552.5C 402.069,553.78 401.402,555.447 401.5,557.5C 399.96,559.838 399.294,562.505 399.5,565.5C 399.5,567.5 399.5,569.5 399.5,571.5C 379.489,571.833 359.489,571.5 339.5,570.5C 347.227,567.385 354.56,563.718 361.5,559.5C 363.027,559.573 364.027,558.906 364.5,557.5C 367.862,553.804 371.528,550.47 375.5,547.5C 376.674,546.486 377.34,545.153 377.5,543.5C 380.452,538.963 383.452,534.296 386.5,529.5C 387.355,525.744 388.355,522.077 389.5,518.5C 391.388,516.012 392.055,513.012 391.5,509.5C 391.5,509.167 391.5,508.833 391.5,508.5C 393.033,506.366 393.7,503.866 393.5,501C 393.453,498.705 392.787,496.871 391.5,495.5C 392.036,492.302 391.369,489.635 389.5,487.5C 389.715,485.821 389.048,484.821 387.5,484.5C 386.963,481.964 385.63,479.964 383.5,478.5C 384.507,476.732 383.841,475.399 381.5,474.5C 380.893,474.624 380.56,474.957 380.5,475.5C 379.833,474.833 379.167,474.167 378.5,473.5C 377.335,470.41 375.002,469.076 371.5,469.5C 370.833,469.5 370.167,469.5 369.5,469.5C 369.611,468.883 369.944,468.383 370.5,468C 387.877,467.82 405.211,467.32 422.5,466.5C 423.474,468.743 423.808,471.076 423.5,473.5C 423.5,473.833 423.5,474.167 423.5,474.5C 422.351,474.791 421.684,475.624 421.5,477C 420.834,478.669 420.834,480.169 421.5,481.5C 423.215,479.118 425.215,477.118 427.5,475.5C 427.5,474.167 428.167,473.5 429.5,473.5C 431.754,472.876 433.421,471.543 434.5,469.5C 435.5,469.5 436.5,469.5 437.5,469.5C 439.749,468.92 441.415,467.587 442.5,465.5 Z"/></g>
<g><path style="opacity:0.208" fill="#bcbbbb" d="M 542.5,465.5 C 542.389,466.117 542.056,466.617 541.5,467C 529.125,466.85 517.125,467.683 505.5,469.5C 503.824,468.817 503.157,467.483 503.5,465.5C 516.5,465.5 529.5,465.5 542.5,465.5 Z"/></g>
<g><path style="opacity:0.208" fill="#c1bfbe" d="M 617.5,467.5 C 606.577,466.893 595.91,467.56 585.5,469.5C 585.5,468.167 585.5,466.833 585.5,465.5C 596.552,464.857 607.219,465.524 617.5,467.5 Z"/></g>
<g><path style="opacity:0.208" fill="#bcbaba" d="M 707.5,465.5 C 691.531,467.322 675.197,468.155 658.5,468C 657.944,468.383 657.611,468.883 657.5,469.5C 655.023,468.88 655.023,467.88 657.5,466.5C 674.153,465.501 690.82,465.167 707.5,465.5 Z"/></g>
<g><path style="opacity:0.973" fill="#060505" d="M 749.5,464.5 C 749.83,470.01 749.164,475.343 747.5,480.5C 745.787,481.635 745.12,483.302 745.5,485.5C 746.317,491.013 743.983,493.68 738.5,493.5C 737.129,492.213 735.295,491.547 733,491.5C 730.705,491.547 728.871,492.213 727.5,493.5C 726.167,493.5 724.833,493.5 723.5,493.5C 720.99,493.054 718.99,493.72 717.5,495.5C 715.147,496.34 713.147,497.674 711.5,499.5C 708.5,500.5 706.5,502.5 705.5,505.5C 705.768,507.099 705.434,508.432 704.5,509.5C 704.631,508.761 704.464,508.094 704,507.5C 702.519,508.471 701.685,509.804 701.5,511.5C 701.5,512.5 701.5,513.5 701.5,514.5C 700.624,514.369 699.957,514.702 699.5,515.5C 698.347,516.687 698.347,517.687 699.5,518.5C 697.852,520.456 697.185,522.789 697.5,525.5C 695.824,526.183 695.157,527.517 695.5,529.5C 694.167,535.5 692.833,541.5 691.5,547.5C 689.555,550.393 688.221,553.727 687.5,557.5C 687.5,558.5 687.5,559.5 687.5,560.5C 686.883,560.611 686.383,560.944 686,561.5C 685.503,564.146 685.336,566.813 685.5,569.5C 667.864,571.487 649.864,572.153 631.5,571.5C 632.868,570.694 634.201,569.694 635.5,568.5C 636.696,568.846 636.696,569.346 635.5,570C 637.896,570.866 638.563,570.366 637.5,568.5C 638.77,567.712 639.77,566.712 640.5,565.5C 641.779,564.032 643.446,563.365 645.5,563.5C 648.473,561.853 651.14,559.853 653.5,557.5C 654.833,554.833 656.833,552.833 659.5,551.5C 661.262,550.738 662.262,549.404 662.5,547.5C 663.167,547.5 663.5,547.167 663.5,546.5C 664.906,546.027 665.573,545.027 665.5,543.5C 667.104,542.713 667.771,541.38 667.5,539.5C 660.159,539.334 652.826,539.5 645.5,540C 643.627,541.704 641.96,543.537 640.5,545.5C 637.588,548.791 633.922,550.791 629.5,551.5C 627.821,551.285 626.821,551.952 626.5,553.5C 625.833,553.5 625.167,553.5 624.5,553.5C 624.611,552.883 624.944,552.383 625.5,552C 618.709,551.818 612.042,550.984 605.5,549.5C 604.167,549.5 602.833,549.5 601.5,549.5C 600.833,546.833 600.167,544.167 599.5,541.5C 599.5,537.5 599.5,533.5 599.5,529.5C 599.5,528.167 599.5,526.833 599.5,525.5C 624.339,525.831 649.006,525.498 673.5,524.5C 674.906,524.027 675.573,523.027 675.5,521.5C 677.04,519.162 677.706,516.495 677.5,513.5C 678.402,510.017 679.068,506.35 679.5,502.5C 679.36,500.97 678.693,499.97 677.5,499.5C 677.5,497.5 677.5,495.5 677.5,493.5C 677.365,489.57 676.032,486.236 673.5,483.5C 673.152,481.287 672.319,479.287 671,477.5C 670.536,478.094 670.369,478.761 670.5,479.5C 668.455,478.077 667.455,476.077 667.5,473.5C 663.932,472.715 660.599,471.382 657.5,469.5C 657.611,468.883 657.944,468.383 658.5,468C 675.197,468.155 691.531,467.322 707.5,465.5C 708.833,465.5 710.167,465.5 711.5,465.5C 710.201,469.37 709.534,473.37 709.5,477.5C 707.391,478.052 706.558,479.386 707,481.5C 708.376,480.295 709.542,478.962 710.5,477.5C 711.873,475.793 713.539,474.46 715.5,473.5C 717.027,473.573 718.027,472.906 718.5,471.5C 719.779,470.032 721.446,469.365 723.5,469.5C 725.795,468.864 727.461,467.531 728.5,465.5C 730.833,465.5 733.167,465.5 735.5,465.5C 740.263,465.774 744.93,465.441 749.5,464.5 Z"/></g>
<g><path style="opacity:0.208" fill="#adabaa" d="M 307.5,464.5 C 313.979,465.491 320.646,465.824 327.5,465.5C 327.843,467.483 327.176,468.817 325.5,469.5C 319.588,467.544 313.255,466.877 306.5,467.5C 306.263,466.209 306.596,465.209 307.5,464.5 Z"/></g>
<g><path style="opacity:0.974" fill="#050505" d="M 542.5,465.5 C 543.5,465.5 544.5,465.5 545.5,465.5C 545.5,472.167 545.5,478.833 545.5,485.5C 544.897,490.619 545.564,495.285 547.5,499.5C 547.5,503.5 547.5,507.5 547.5,511.5C 546.883,517.598 547.55,523.265 549.5,528.5C 549.281,529.675 549.614,530.675 550.5,531.5C 552.028,526.663 554.361,522.33 557.5,518.5C 558.906,518.027 559.573,517.027 559.5,515.5C 559.5,514.833 559.5,514.167 559.5,513.5C 560.833,513.5 561.5,512.833 561.5,511.5C 561.966,508.376 563.299,505.71 565.5,503.5C 567.446,502.965 568.446,501.632 568.5,499.5C 569.581,494.756 571.914,490.756 575.5,487.5C 576.674,486.486 577.34,485.153 577.5,483.5C 579.738,482.147 581.071,480.147 581.5,477.5C 581.157,475.517 581.824,474.183 583.5,473.5C 584.674,472.486 585.34,471.153 585.5,469.5C 595.91,467.56 606.577,466.893 617.5,467.5C 617.5,467.833 617.5,468.167 617.5,468.5C 616.624,468.369 615.957,468.702 615.5,469.5C 614.547,472.426 613.213,475.093 611.5,477.5C 610.791,481.922 608.791,485.588 605.5,488.5C 604.094,488.973 603.427,489.973 603.5,491.5C 603.768,493.099 603.434,494.432 602.5,495.5C 602.607,493.621 602.107,493.288 601,494.5C 599.807,496.886 598.64,499.22 597.5,501.5C 595.674,503.147 594.34,505.147 593.5,507.5C 592.612,510.714 591.279,513.714 589.5,516.5C 587.5,516.5 586.5,517.5 586.5,519.5C 585.596,520.209 585.263,521.209 585.5,522.5C 583.469,523.539 582.136,525.205 581.5,527.5C 581.762,528.978 581.429,530.311 580.5,531.5C 578.122,534.966 575.789,538.3 573.5,541.5C 571.674,543.147 570.34,545.147 569.5,547.5C 569.5,547.833 569.5,548.167 569.5,548.5C 567.457,549.579 566.124,551.246 565.5,553.5C 565.843,555.483 565.176,556.817 563.5,557.5C 561.684,559.118 560.351,561.118 559.5,563.5C 559.479,566.535 558.146,568.868 555.5,570.5C 544.854,571.499 534.187,571.832 523.5,571.5C 522.833,571.5 522.167,571.5 521.5,571.5C 506.833,571.5 492.167,571.5 477.5,571.5C 478.833,570.167 480.167,568.833 481.5,567.5C 483.786,567.405 485.786,566.738 487.5,565.5C 488.183,563.824 489.517,563.157 491.5,563.5C 495.697,561.976 499.03,559.309 501.5,555.5C 503.773,555.043 505.106,553.71 505.5,551.5C 507.523,548.757 509.523,546.09 511.5,543.5C 512.391,542.739 513.058,541.739 513.5,540.5C 506.189,539.335 498.856,539.169 491.5,540C 488.231,543.779 484.564,546.946 480.5,549.5C 479.221,550.968 477.554,551.635 475.5,551.5C 473.821,551.285 472.821,551.952 472.5,553.5C 472.167,553.5 471.833,553.5 471.5,553.5C 465.021,552.038 458.355,550.705 451.5,549.5C 451.167,549.5 450.833,549.5 450.5,549.5C 450.5,547.5 449.5,546.5 447.5,546.5C 447.5,546.167 447.5,545.833 447.5,545.5C 447.5,538.833 447.5,532.167 447.5,525.5C 471.509,525.833 495.509,525.5 519.5,524.5C 520.853,523.476 521.52,522.143 521.5,520.5C 523.213,519.365 523.88,517.698 523.5,515.5C 524.979,511.091 525.646,506.424 525.5,501.5C 525.333,498.5 525.167,495.5 525,492.5C 524.722,491.584 524.222,490.918 523.5,490.5C 520.777,485.398 517.777,480.398 514.5,475.5C 512.435,474.143 510.435,472.81 508.5,471.5C 508.179,469.952 507.179,469.285 505.5,469.5C 517.125,467.683 529.125,466.85 541.5,467C 542.056,466.617 542.389,466.117 542.5,465.5 Z"/></g>
<g><path style="opacity:0.043" fill="#aba8aa" d="M 442.5,465.5 C 441.415,467.587 439.749,468.92 437.5,469.5C 438.265,467.071 439.931,465.738 442.5,465.5 Z"/></g>
<g><path style="opacity:0.055" fill="#bfbbb9" d="M 728.5,465.5 C 727.461,467.531 725.795,468.864 723.5,469.5C 724.265,467.071 725.931,465.738 728.5,465.5 Z"/></g>
<g><path style="opacity:0.235" fill="#d4d1ce" d="M 259.5,465.5 C 259.037,468.33 258.371,470.997 257.5,473.5C 256.964,470.302 257.631,467.635 259.5,465.5 Z"/></g>
<g><path style="opacity:0.004" fill="#f1efee" d="M 434.5,469.5 C 433.421,471.543 431.754,472.876 429.5,473.5C 430.265,471.071 431.931,469.738 434.5,469.5 Z"/></g>
<g><path style="opacity:0.008" fill="#cecccd" d="M 505.5,469.5 C 507.179,469.285 508.179,469.952 508.5,471.5C 506.821,471.715 505.821,471.048 505.5,469.5 Z"/></g>
<g><path style="opacity:0.004" fill="#edebed" d="M 585.5,469.5 C 585.34,471.153 584.674,472.486 583.5,473.5C 583.157,471.517 583.824,470.183 585.5,469.5 Z"/></g>
<g><path style="opacity:0.012" fill="#a5a2a4" d="M 371.5,469.5 C 375.002,469.076 377.335,470.41 378.5,473.5C 375.626,472.903 373.292,471.569 371.5,469.5 Z"/></g>
<g><path style="opacity:0.314" fill="#75716e" d="M 617.5,468.5 C 616.799,470.908 615.799,473.242 614.5,475.5C 613.735,476.612 612.735,477.279 611.5,477.5C 613.213,475.093 614.547,472.426 615.5,469.5C 615.957,468.702 616.624,468.369 617.5,468.5 Z"/></g>
<g><path style="opacity:0.008" fill="#c3c3c4" d="M 718.5,471.5 C 718.027,472.906 717.027,473.573 715.5,473.5C 715.821,471.952 716.821,471.285 718.5,471.5 Z"/></g>
<g><path style="opacity:0.016" fill="#c0c0c4" d="M 257.5,473.5 C 257.59,476.152 256.924,478.485 255.5,480.5C 254.99,477.612 255.656,475.279 257.5,473.5 Z"/></g>
<g><path style="opacity:0.494" fill="#b7a09d" d="M 380.5,475.5 C 380.56,474.957 380.893,474.624 381.5,474.5C 383.841,475.399 384.507,476.732 383.5,478.5C 382.5,477.5 381.5,476.5 380.5,475.5 Z"/></g>
<g><path style="opacity:0.03" fill="#e3e4e3" d="M 423.5,474.5 C 424.568,475.434 425.901,475.768 427.5,475.5C 425.215,477.118 423.215,479.118 421.5,481.5C 420.834,480.169 420.834,478.669 421.5,477C 421.684,475.624 422.351,474.791 423.5,474.5 Z"/></g>
<g><path style="opacity:0.004" fill="#d9cdf0" d="M 325.5,473.5 C 325.843,475.483 325.176,476.817 323.5,477.5C 323.157,475.517 323.824,474.183 325.5,473.5 Z"/></g>
<g><path style="opacity:0.027" fill="#848385" d="M 463.5,474.5 C 463.715,476.179 463.048,477.179 461.5,477.5C 461.335,474.482 461.502,471.482 462,468.5C 462.191,470.708 462.691,472.708 463.5,474.5 Z"/></g>
<g><path style="opacity:0.141" fill="#afada8" d="M 709.5,477.5 C 709.833,477.5 710.167,477.5 710.5,477.5C 709.542,478.962 708.376,480.295 707,481.5C 706.558,479.386 707.391,478.052 709.5,477.5 Z"/></g>
<g><path style="opacity:0.416" fill="#857f82" d="M 581.5,477.5 C 581.071,480.147 579.738,482.147 577.5,483.5C 577.354,480.446 578.687,478.446 581.5,477.5 Z"/></g>
<g><path style="opacity:0.004" fill="#eae8e6" d="M 673.5,483.5 C 672.022,482.552 671.022,481.219 670.5,479.5C 670.369,478.761 670.536,478.094 671,477.5C 672.319,479.287 673.152,481.287 673.5,483.5 Z"/></g>
<g><path style="opacity:0.008" fill="#cfcfd0" d="M 577.5,483.5 C 577.34,485.153 576.674,486.486 575.5,487.5C 575.157,485.517 575.824,484.183 577.5,483.5 Z"/></g>
<g><path style="opacity:0.039" fill="#ceccca" d="M 641.5,485.5 C 636.833,485.5 632.167,485.5 627.5,485.5C 629.397,484.195 631.731,483.529 634.5,483.5C 637.269,483.529 639.603,484.195 641.5,485.5 Z"/></g>
<g><path style="opacity:0.004" fill="#d3d3d3" d="M 747.5,480.5 C 747.923,482.781 747.256,484.448 745.5,485.5C 745.12,483.302 745.787,481.635 747.5,480.5 Z"/></g>
<g><path style="opacity:0.157" fill="#c8c7c3" d="M 253.5,482.5 C 254.239,482.369 254.906,482.536 255.5,483C 254.587,484.414 254.587,485.914 255.5,487.5C 253.744,486.448 253.077,484.781 253.5,482.5 Z"/></g>
<g><path style="opacity:0.071" fill="#c8c4c3" d="M 353.5,485.5 C 348.833,485.5 344.167,485.5 339.5,485.5C 341.397,484.195 343.731,483.529 346.5,483.5C 349.269,483.529 351.603,484.195 353.5,485.5 Z"/></g>
<g><path style="opacity:0.075" fill="#cccaca" d="M 489.5,485.5 C 484.167,485.5 478.833,485.5 473.5,485.5C 475.743,484.188 478.41,483.522 481.5,483.5C 484.59,483.522 487.257,484.188 489.5,485.5 Z"/></g>
<g><path style="opacity:0.431" fill="#888686" d="M 316.5,487.5 C 311.5,487.5 306.5,487.5 301.5,487.5C 303.571,486.191 306.071,485.525 309,485.5C 311.929,485.525 314.429,486.191 316.5,487.5 Z"/></g>
<g><path style="opacity:0.984" fill="#040303" d="M 339.5,485.5 C 344.167,485.5 348.833,485.5 353.5,485.5C 354.731,486.718 355.898,488.051 357,489.5C 358.299,489.034 359.799,489.034 361.5,489.5C 362.066,491.078 363.066,492.412 364.5,493.5C 365.833,502.167 365.833,510.833 364.5,519.5C 362.53,523.42 361.196,527.42 360.5,531.5C 360.649,530.448 360.483,529.448 360,528.5C 358.967,531.784 357.467,534.784 355.5,537.5C 355.5,537.833 355.5,538.167 355.5,538.5C 351.5,541.833 347.833,545.5 344.5,549.5C 343.221,550.968 341.554,551.635 339.5,551.5C 332.833,551.5 326.167,551.5 319.5,551.5C 319.167,551.5 318.833,551.5 318.5,551.5C 317.415,549.413 315.749,548.08 313.5,547.5C 311.824,546.817 311.157,545.483 311.5,543.5C 311.204,541.597 310.537,539.93 309.5,538.5C 309.5,538.167 309.5,537.833 309.5,537.5C 309.5,534.167 309.5,530.833 309.5,527.5C 310.458,525.698 311.125,523.698 311.5,521.5C 312.59,516.882 313.923,512.215 315.5,507.5C 315.157,505.517 315.824,504.183 317.5,503.5C 318.674,502.486 319.34,501.153 319.5,499.5C 321.262,498.738 322.262,497.404 322.5,495.5C 323.338,495.158 323.672,494.492 323.5,493.5C 326.366,493.367 328.366,492.034 329.5,489.5C 331.153,489.34 332.486,488.674 333.5,487.5C 335.282,486.28 337.282,485.614 339.5,485.5 Z"/></g>
<g><path style="opacity:0.004" fill="#ecedec" d="M 387.5,484.5 C 389.048,484.821 389.715,485.821 389.5,487.5C 387.952,487.179 387.285,486.179 387.5,484.5 Z"/></g>
<g><path style="opacity:0.969" fill="#060606" d="M 473.5,485.5 C 478.833,485.5 484.167,485.5 489.5,485.5C 491.919,486.364 493.919,487.697 495.5,489.5C 496.669,495.036 498.002,500.369 499.5,505.5C 499.5,506.167 499.5,506.833 499.5,507.5C 483.132,508.151 467.132,507.485 451.5,505.5C 452.72,503.718 453.386,501.718 453.5,499.5C 456.478,498.522 458.478,496.522 459.5,493.5C 461.754,492.876 463.421,491.543 464.5,489.5C 467.099,487.369 470.099,486.036 473.5,485.5 Z"/></g>
<g><path style="opacity:0.928" fill="#080707" d="M 627.5,485.5 C 632.167,485.5 636.833,485.5 641.5,485.5C 644.343,485.917 647.01,486.917 649.5,488.5C 651.173,490.523 651.84,492.856 651.5,495.5C 651.5,500.167 651.5,504.833 651.5,509.5C 636.167,509.5 620.833,509.5 605.5,509.5C 605.5,508.167 605.5,506.833 605.5,505.5C 605.587,502.422 606.92,500.089 609.5,498.5C 610.906,498.027 611.573,497.027 611.5,495.5C 611.5,494.167 612.167,493.5 613.5,493.5C 616.761,492.572 619.094,490.572 620.5,487.5C 622.737,486.551 625.071,485.884 627.5,485.5 Z"/></g>
<g><path style="opacity:0.016" fill="#efefef" d="M 389.5,487.5 C 391.369,489.635 392.036,492.302 391.5,495.5C 389.631,493.365 388.964,490.698 389.5,487.5 Z"/></g>
<g><path style="opacity:0.247" fill="#bcbcbb" d="M 673.5,483.5 C 676.032,486.236 677.365,489.57 677.5,493.5C 675.425,490.639 674.092,487.306 673.5,483.5 Z"/></g>
<g><path style="opacity:0.027" fill="#cacbc7" d="M 333.5,487.5 C 332.486,488.674 331.153,489.34 329.5,489.5C 330.183,487.824 331.517,487.157 333.5,487.5 Z"/></g>
<g><path style="opacity:0.702" fill="#5f5c5d" d="M 353.5,485.5 C 356.806,485.819 359.473,487.153 361.5,489.5C 359.799,489.034 358.299,489.034 357,489.5C 355.898,488.051 354.731,486.718 353.5,485.5 Z"/></g>
<g><path style="opacity:0.112" fill="#8c8b8b" d="M 545.5,485.5 C 547.436,489.715 548.103,494.381 547.5,499.5C 545.564,495.285 544.897,490.619 545.5,485.5 Z"/></g>
<g><path style="opacity:0.051" fill="#c7c7c6" d="M 459.5,487.5 C 459.5,488.833 459.5,490.167 459.5,491.5C 458.833,491.5 458.167,491.5 457.5,491.5C 457.157,489.517 457.824,488.183 459.5,487.5 Z"/></g>
<g><path style="opacity:0.424" fill="#6f6163" d="M 620.5,487.5 C 619.094,490.572 616.761,492.572 613.5,493.5C 614.914,490.418 617.248,488.418 620.5,487.5 Z"/></g>
<g><path style="opacity:0.031" fill="#cec7c7" d="M 605.5,488.5 C 605.715,490.179 605.048,491.179 603.5,491.5C 603.427,489.973 604.094,488.973 605.5,488.5 Z"/></g>
<g><path style="opacity:0.004" fill="#d9d7d7" d="M 269.5,488.5 C 270.239,488.369 270.906,488.536 271.5,489C 270.438,492.047 269.105,494.88 267.5,497.5C 267.558,494.336 268.224,491.336 269.5,488.5 Z"/></g>
<g><path style="opacity:0.576" fill="#847d7e" d="M 329.5,489.5 C 328.366,492.034 326.366,493.367 323.5,493.5C 325.081,491.697 327.081,490.364 329.5,489.5 Z"/></g>
<g><path style="opacity:0.05" fill="#d0cfcf" d="M 452.5,493.5 C 447.833,493.5 443.167,493.5 438.5,493.5C 440.807,491.953 443.473,491.287 446.5,491.5C 448.952,491.539 450.952,492.206 452.5,493.5 Z"/></g>
<g><path style="opacity:0.045" fill="#d2d3d3" d="M 738.5,493.5 C 734.833,493.5 731.167,493.5 727.5,493.5C 728.871,492.213 730.705,491.547 733,491.5C 735.295,491.547 737.129,492.213 738.5,493.5 Z"/></g>
<g><path style="opacity:0.063" fill="#b1b0ac" d="M 464.5,489.5 C 463.421,491.543 461.754,492.876 459.5,493.5C 459.5,492.833 459.5,492.167 459.5,491.5C 461.011,490.498 462.678,489.831 464.5,489.5 Z"/></g>
<g><path style="opacity:0.098" fill="#afadaa" d="M 437.5,493.5 C 436.082,495.308 434.082,495.975 431.5,495.5C 432.99,493.72 434.99,493.054 437.5,493.5 Z"/></g>
<g><path style="opacity:0.094" fill="#aeabab" d="M 723.5,493.5 C 722.082,495.308 720.082,495.975 717.5,495.5C 718.99,493.72 720.99,493.054 723.5,493.5 Z"/></g>
<g><path style="opacity:0.017" fill="#e1e0dd" d="M 322.5,495.5 C 322.262,497.404 321.262,498.738 319.5,499.5C 319.5,498.167 319.5,496.833 319.5,495.5C 320.5,495.5 321.5,495.5 322.5,495.5 Z"/></g>
<g><path style="opacity:0.031" fill="#adafaa" d="M 457.5,493.5 C 458.167,493.5 458.833,493.5 459.5,493.5C 458.478,496.522 456.478,498.522 453.5,499.5C 454.833,497.5 456.167,495.5 457.5,493.5 Z"/></g>
<g><path style="opacity:0.071" fill="#caccc8" d="M 602.5,495.5 C 601.779,498.267 600.113,500.267 597.5,501.5C 598.64,499.22 599.807,496.886 601,494.5C 602.107,493.288 602.607,493.621 602.5,495.5 Z"/></g>
<g><path style="opacity:0.078" fill="#bdb9b7" d="M 611.5,495.5 C 611.573,497.027 610.906,498.027 609.5,498.5C 609.285,496.821 609.952,495.821 611.5,495.5 Z"/></g>
<g><path style="opacity:0.008" fill="#dcd4d8" d="M 431.5,495.5 C 430.554,498.313 428.554,499.646 425.5,499.5C 426.802,497.178 428.802,495.845 431.5,495.5 Z"/></g>
<g><path style="opacity:0.004" fill="#c4c1bd" d="M 717.5,495.5 C 716.554,498.313 714.554,499.646 711.5,499.5C 713.147,497.674 715.147,496.34 717.5,495.5 Z"/></g>
<g><path style="opacity:0.281" fill="#afabb1" d="M 495.5,489.5 C 496.735,489.721 497.735,490.388 498.5,491.5C 499.493,496.12 499.827,500.786 499.5,505.5C 498.002,500.369 496.669,495.036 495.5,489.5 Z"/></g>
<g><path style="opacity:0.031" fill="#a1a1a8" d="M 299.5,497.5 C 299.843,499.483 299.176,500.817 297.5,501.5C 297.157,499.517 297.824,498.183 299.5,497.5 Z"/></g>
<g><path style="opacity:0.008" fill="#d0cfcf" d="M 319.5,499.5 C 319.34,501.153 318.674,502.486 317.5,503.5C 317.157,501.517 317.824,500.183 319.5,499.5 Z"/></g>
<g><path style="opacity:0.29" fill="#767779" d="M 391.5,495.5 C 392.787,496.871 393.453,498.705 393.5,501C 393.7,503.866 393.033,506.366 391.5,508.5C 391.5,504.167 391.5,499.833 391.5,495.5 Z"/></g>
<g><path style="opacity:0.051" fill="#b1a9a2" d="M 425.5,499.5 C 424.167,502.167 422.167,504.167 419.5,505.5C 420.5,502.5 422.5,500.5 425.5,499.5 Z"/></g>
<g><path style="opacity:0.112" fill="#5f5e5e" d="M 523.5,490.5 C 524.222,490.918 524.722,491.584 525,492.5C 525.167,495.5 525.333,498.5 525.5,501.5C 525.646,506.424 524.979,511.091 523.5,515.5C 523.5,507.167 523.5,498.833 523.5,490.5 Z"/></g>
<g><path style="opacity:0.055" fill="#c6cac8" d="M 568.5,499.5 C 568.446,501.632 567.446,502.965 565.5,503.5C 565.5,502.167 565.5,500.833 565.5,499.5C 566.5,499.5 567.5,499.5 568.5,499.5 Z"/></g>
<g><path style="opacity:0.224" fill="#5b5a5b" d="M 651.5,495.5 C 652.805,497.397 653.471,499.731 653.5,502.5C 653.471,505.269 652.805,507.603 651.5,509.5C 651.5,504.833 651.5,500.167 651.5,495.5 Z"/></g>
<g><path style="opacity:0.086" fill="#8e8381" d="M 711.5,499.5 C 710.167,502.167 708.167,504.167 705.5,505.5C 706.5,502.5 708.5,500.5 711.5,499.5 Z"/></g>
<g><path style="opacity:0.004" fill="#fefffe" d="M 785.5,501.5 C 787.337,501.639 787.67,502.306 786.5,503.5C 785.702,503.043 785.369,502.376 785.5,501.5 Z"/></g>
<g><path style="opacity:0.122" fill="#918e8e" d="M 267.5,499.5 C 267.59,502.152 266.924,504.485 265.5,506.5C 264.99,503.612 265.656,501.279 267.5,499.5 Z"/></g>
<g><path style="opacity:0.129" fill="#798183" d="M 297.5,501.5 C 297.975,504.082 297.308,506.082 295.5,507.5C 295.259,505.102 295.926,503.102 297.5,501.5 Z"/></g>
<g><path style="opacity:0.075" fill="#a29595" d="M 597.5,501.5 C 597.646,504.554 596.313,506.554 593.5,507.5C 594.34,505.147 595.674,503.147 597.5,501.5 Z"/></g>
<g><path style="opacity:0.42" fill="#7b7b7b" d="M 451.5,505.5 C 467.132,507.485 483.132,508.151 499.5,507.5C 483.2,509.485 466.534,510.152 449.5,509.5C 449.157,507.517 449.824,506.183 451.5,505.5 Z"/></g>
<g><path style="opacity:0.051" fill="#cdcac5" d="M 605.5,505.5 C 605.5,506.833 605.5,508.167 605.5,509.5C 604.414,509.38 603.747,508.713 603.5,507.5C 603.747,506.287 604.414,505.62 605.5,505.5 Z"/></g>
<g><path style="opacity:0.004" fill="#fefffe" d="M 963.5,507.5 C 965.337,507.639 965.67,508.306 964.5,509.5C 963.702,509.043 963.369,508.376 963.5,507.5 Z"/></g>
<g><path style="opacity:0.357" fill="#757576" d="M 677.5,499.5 C 678.693,499.97 679.36,500.97 679.5,502.5C 679.068,506.35 678.402,510.017 677.5,513.5C 677.5,508.833 677.5,504.167 677.5,499.5 Z"/></g>
<g><path style="opacity:0.012" fill="#f5f3f5" d="M 391.5,509.5 C 392.055,513.012 391.388,516.012 389.5,518.5C 388.909,517.849 388.243,517.182 387.5,516.5C 388.67,513.895 390.003,511.562 391.5,509.5 Z"/></g>
<g><path style="opacity:0.035" fill="#c4b8b6" d="M 704.5,509.5 C 703.778,510.551 702.778,511.218 701.5,511.5C 701.685,509.804 702.519,508.471 704,507.5C 704.464,508.094 704.631,508.761 704.5,509.5 Z"/></g>
<g><path style="opacity:0.012" fill="#bcbbbe" d="M 315.5,507.5 C 313.923,512.215 312.59,516.882 311.5,521.5C 311.18,518.102 311.513,514.768 312.5,511.5C 313.057,509.668 314.057,508.335 315.5,507.5 Z"/></g>
<g><path style="opacity:0.388" fill="#807d7b" d="M 416.5,511.5 C 415.978,513.219 414.978,514.552 413.5,515.5C 413.892,513.821 414.392,512.154 415,510.5C 416.107,509.288 416.607,509.621 416.5,511.5 Z"/></g>
<g><path style="opacity:0.027" fill="#c9c9c9" d="M 561.5,511.5 C 561.5,512.833 560.833,513.5 559.5,513.5C 559.5,512.167 560.167,511.5 561.5,511.5 Z"/></g>
<g><path style="opacity:0.008" fill="#aba8aa" d="M 295.5,513.5 C 295.843,515.483 295.176,516.817 293.5,517.5C 293.157,515.517 293.824,514.183 295.5,513.5 Z"/></g>
<g><path style="opacity:0.024" fill="#c1c6c5" d="M 559.5,515.5 C 559.573,517.027 558.906,518.027 557.5,518.5C 557.285,516.821 557.952,515.821 559.5,515.5 Z"/></g>
<g><path style="opacity:0.133" fill="#979495" d="M 677.5,513.5 C 677.706,516.495 677.04,519.162 675.5,521.5C 674.964,518.302 675.631,515.635 677.5,513.5 Z"/></g>
<g><path style="opacity:0.129" fill="#b0a6b0" d="M 523.5,515.5 C 523.88,517.698 523.213,519.365 521.5,520.5C 521.077,518.219 521.744,516.552 523.5,515.5 Z"/></g>
<g><path style="opacity:0.004" fill="#e8e8e3" d="M 589.5,516.5 C 589.5,517.5 589.5,518.5 589.5,519.5C 588.5,519.5 587.5,519.5 586.5,519.5C 586.5,517.5 587.5,516.5 589.5,516.5 Z"/></g>
<g><path style="opacity:0.063" fill="#d6d2ce" d="M 701.5,514.5 C 701.473,516.199 700.806,517.533 699.5,518.5C 698.347,517.687 698.347,516.687 699.5,515.5C 699.957,514.702 700.624,514.369 701.5,514.5 Z"/></g>
<g><path style="opacity:0.063" fill="#7f7d7e" d="M 413.5,516.5 C 413.923,518.781 413.256,520.448 411.5,521.5C 411.402,519.447 412.069,517.78 413.5,516.5 Z"/></g>
<g><path style="opacity:0.045" fill="#e3e3e1" d="M 547.5,511.5 C 549.45,516.735 550.117,522.402 549.5,528.5C 547.55,523.265 546.883,517.598 547.5,511.5 Z"/></g>
<g><path style="opacity:0.004" fill="#dbd9d9" d="M 261.5,516.5 C 262.239,516.369 262.906,516.536 263.5,517C 262.773,519.124 262.106,521.291 261.5,523.5C 261.043,524.298 260.376,524.631 259.5,524.5C 260.64,521.975 261.307,519.308 261.5,516.5 Z"/></g>
<g><path style="opacity:0.02" fill="#d5c9c6" d="M 675.5,521.5 C 675.573,523.027 674.906,524.027 673.5,524.5C 673.285,522.821 673.952,521.821 675.5,521.5 Z"/></g>
<g><path style="opacity:0.267" fill="#b6b2b4" d="M 311.5,521.5 C 311.125,523.698 310.458,525.698 309.5,527.5C 309.025,524.918 309.692,522.918 311.5,521.5 Z"/></g>
<g><path style="opacity:0.008" fill="#d1d1d0" d="M 585.5,522.5 C 585.262,525.069 583.929,526.735 581.5,527.5C 582.136,525.205 583.469,523.539 585.5,522.5 Z"/></g>
<g><path style="opacity:0.009" fill="#f9fff9" d="M 309.5,527.5 C 309.5,530.833 309.5,534.167 309.5,537.5C 308.223,536.306 307.556,534.64 307.5,532.5C 307.556,530.36 308.223,528.694 309.5,527.5 Z"/></g>
<g><path style="opacity:0.008" fill="#d1d5d5" d="M 411.5,525.5 C 411.843,527.483 411.176,528.817 409.5,529.5C 409.157,527.517 409.824,526.183 411.5,525.5 Z"/></g>
<g><path style="opacity:0.035" fill="#878586" d="M 697.5,525.5 C 697.843,527.483 697.176,528.817 695.5,529.5C 695.157,527.517 695.824,526.183 697.5,525.5 Z"/></g>
<g><path style="opacity:0.004" fill="#fefffe" d="M 145.5,529.5 C 147.337,529.639 147.67,530.306 146.5,531.5C 145.702,531.043 145.369,530.376 145.5,529.5 Z"/></g>
<g><path style="opacity:0.02" fill="#999899" d="M 291.5,527.5 C 291.843,529.483 291.176,530.817 289.5,531.5C 289.157,529.517 289.824,528.183 291.5,527.5 Z"/></g>
<g><path style="opacity:0.605" fill="#484648" d="M 447.5,525.5 C 447.5,532.167 447.5,538.833 447.5,545.5C 446.18,542.572 445.514,539.239 445.5,535.5C 445.514,531.761 446.18,528.428 447.5,525.5 Z"/></g>
<g><path style="opacity:0.149" fill="#9c9a9a" d="M 259.5,529.5 C 259.435,532.428 258.768,535.095 257.5,537.5C 256.964,534.302 257.631,531.635 259.5,529.5 Z"/></g>
<g><path style="opacity:0.012" fill="#a9a5a4" d="M 360.5,531.5 C 359.779,534.267 358.113,536.267 355.5,537.5C 357.467,534.784 358.967,531.784 360,528.5C 360.483,529.448 360.649,530.448 360.5,531.5 Z"/></g>
<g><path style="opacity:0.016" fill="#a8a5a6" d="M 409.5,529.5 C 409.813,532.247 409.48,534.914 408.5,537.5C 408.036,539.975 407.036,541.975 405.5,543.5C 406.43,539.204 407.263,534.87 408,530.5C 408.383,529.944 408.883,529.611 409.5,529.5 Z"/></g>
<g><path style="opacity:0.106" fill="#767477" d="M 599.5,529.5 C 599.5,533.5 599.5,537.5 599.5,541.5C 598.206,539.952 597.539,537.952 597.5,535.5C 597.539,533.048 598.206,531.048 599.5,529.5 Z"/></g>
<g><path style="opacity:0.122" fill="#99a0a1" d="M 257.5,537.5 C 257.125,539.698 256.458,541.698 255.5,543.5C 255.025,540.918 255.692,538.918 257.5,537.5 Z"/></g>
<g><path style="opacity:0.043" fill="#c3bfbc" d="M 511.5,543.5 C 508.572,542.18 505.239,541.514 501.5,541.5C 494.585,540.375 489.252,542.709 485.5,548.5C 483.955,549.452 482.288,549.785 480.5,549.5C 484.564,546.946 488.231,543.779 491.5,540C 498.856,539.169 506.189,539.335 513.5,540.5C 513.058,541.739 512.391,542.739 511.5,543.5 Z"/></g>
<g><path style="opacity:0.024" fill="#ccc5c5" d="M 309.5,538.5 C 310.537,539.93 311.204,541.597 311.5,543.5C 309.744,542.448 309.077,540.781 309.5,538.5 Z"/></g>
<g><path style="opacity:0.075" fill="#b3afa6" d="M 355.5,538.5 C 353.659,542.357 350.992,545.691 347.5,548.5C 346.675,549.386 345.675,549.719 344.5,549.5C 347.833,545.5 351.5,541.833 355.5,538.5 Z"/></g>
<g><path style="opacity:0.008" fill="#d1cac6" d="M 665.5,543.5 C 662.572,542.18 659.239,541.514 655.5,541.5C 652.167,541.833 648.833,542.167 645.5,542.5C 644.272,544.321 642.606,545.321 640.5,545.5C 641.96,543.537 643.627,541.704 645.5,540C 652.826,539.5 660.159,539.334 667.5,539.5C 667.771,541.38 667.104,542.713 665.5,543.5 Z"/></g>
<g><path style="opacity:0.031" fill="#cac8c4" d="M 573.5,541.5 C 573.646,544.554 572.313,546.554 569.5,547.5C 570.34,545.147 571.674,543.147 573.5,541.5 Z"/></g>
<g><path style="opacity:0.004" fill="#fefffe" d="M 101.5,543.5 C 103.337,543.639 103.67,544.306 102.5,545.5C 101.702,545.043 101.369,544.376 101.5,543.5 Z"/></g>
<g><path style="opacity:0.02" fill="#b8b8b9" d="M 377.5,543.5 C 377.34,545.153 376.674,546.486 375.5,547.5C 375.157,545.517 375.824,544.183 377.5,543.5 Z"/></g>
<g><path style="opacity:0.086" fill="#bfbbb3" d="M 665.5,543.5 C 665.573,545.027 664.906,546.027 663.5,546.5C 663.285,544.821 663.952,543.821 665.5,543.5 Z"/></g>
<g><path style="opacity:0.098" fill="#9b9799" d="M 255.5,543.5 C 255.706,546.495 255.04,549.162 253.5,551.5C 252.964,548.302 253.631,545.635 255.5,543.5 Z"/></g>
<g><path style="opacity:0.004" fill="#cccdce" d="M 447.5,546.5 C 449.5,546.5 450.5,547.5 450.5,549.5C 449.5,549.5 448.5,549.5 447.5,549.5C 447.5,548.5 447.5,547.5 447.5,546.5 Z"/></g>
<g><path style="opacity:0.012" fill="#cccbc9" d="M 662.5,547.5 C 662.262,549.404 661.262,550.738 659.5,551.5C 659.5,550.167 659.5,548.833 659.5,547.5C 660.5,547.5 661.5,547.5 662.5,547.5 Z"/></g>
<g><path style="opacity:0.102" fill="#858182" d="M 405.5,543.5 C 406.036,546.698 405.369,549.365 403.5,551.5C 403.294,548.505 403.96,545.838 405.5,543.5 Z"/></g>
<g><path style="opacity:0.049" fill="#c2bdbb" d="M 569.5,548.5 C 569.262,551.069 567.929,552.735 565.5,553.5C 566.124,551.246 567.457,549.579 569.5,548.5 Z"/></g>
<g><path style="opacity:0.016" fill="#c7c2c7" d="M 313.5,547.5 C 315.749,548.08 317.415,549.413 318.5,551.5C 315.931,551.262 314.265,549.929 313.5,547.5 Z"/></g>
<g><path style="opacity:0.263" fill="#63615f" d="M 319.5,551.5 C 326.167,551.5 332.833,551.5 339.5,551.5C 336.572,552.82 333.239,553.486 329.5,553.5C 325.761,553.486 322.428,552.82 319.5,551.5 Z"/></g>
<g><path style="opacity:0.106" fill="#a29f9e" d="M 505.5,551.5 C 505.106,553.71 503.773,555.043 501.5,555.5C 502.167,553.5 503.5,552.167 505.5,551.5 Z"/></g>
<g><path style="opacity:0.278" fill="#666364" d="M 451.5,549.5 C 458.355,550.705 465.021,552.038 471.5,553.5C 465.463,553.829 459.463,553.496 453.5,552.5C 452.388,551.735 451.721,550.735 451.5,549.5 Z"/></g>
<g><path style="opacity:0.024" fill="#c0bab1" d="M 475.5,551.5 C 475.179,553.048 474.179,553.715 472.5,553.5C 472.821,551.952 473.821,551.285 475.5,551.5 Z"/></g>
<g><path style="opacity:0.259" fill="#565353" d="M 605.5,549.5 C 612.042,550.984 618.709,551.818 625.5,552C 624.944,552.383 624.611,552.883 624.5,553.5C 618.794,553.829 613.128,553.495 607.5,552.5C 606.388,551.735 605.721,550.735 605.5,549.5 Z"/></g>
<g><path style="opacity:0.024" fill="#d1cdc4" d="M 629.5,551.5 C 629.179,553.048 628.179,553.715 626.5,553.5C 626.821,551.952 627.821,551.285 629.5,551.5 Z"/></g>
<g><path style="opacity:0.157" fill="#a69fa4" d="M 403.5,552.5 C 403.923,554.781 403.256,556.448 401.5,557.5C 401.402,555.447 402.069,553.78 403.5,552.5 Z"/></g>
<g><path style="opacity:0.357" fill="#a6a4a5" d="M 691.5,547.5 C 691.696,551.606 690.363,554.939 687.5,557.5C 688.221,553.727 689.555,550.393 691.5,547.5 Z"/></g>
<g><path style="opacity:0.251" fill="#91898d" d="M 253.5,551.5 C 253.59,554.152 252.924,556.485 251.5,558.5C 250.99,555.612 251.656,553.279 253.5,551.5 Z"/></g>
<g><path style="opacity:0.008" fill="#cdcccc" d="M 364.5,557.5 C 364.027,558.906 363.027,559.573 361.5,559.5C 361.821,557.952 362.821,557.285 364.5,557.5 Z"/></g>
<g><path style="opacity:0.027" fill="#bfbfbc" d="M 653.5,557.5 C 651.14,559.853 648.473,561.853 645.5,563.5C 647.025,559.975 649.691,557.975 653.5,557.5 Z"/></g>
<g><path style="opacity:0.047" fill="#afa7a7" d="M 563.5,557.5 C 563.646,560.554 562.313,562.554 559.5,563.5C 560.351,561.118 561.684,559.118 563.5,557.5 Z"/></g>
<g><path style="opacity:0.294" fill="#807d82" d="M 401.5,557.5 C 402.036,560.698 401.369,563.365 399.5,565.5C 399.294,562.505 399.96,559.838 401.5,557.5 Z"/></g>
<g><path style="opacity:0.157" fill="#9a9598" d="M 251.5,559.5 C 252.01,562.388 251.344,564.721 249.5,566.5C 248.99,563.612 249.656,561.279 251.5,559.5 Z"/></g>
<g><path style="opacity:0.875" fill="#605b5d" d="M 501.5,555.5 C 499.03,559.309 495.697,561.976 491.5,563.5C 492.183,561.824 493.517,561.157 495.5,561.5C 495.5,560.167 495.5,558.833 495.5,557.5C 497.718,557.386 499.718,556.72 501.5,555.5 Z"/></g>
<g><path style="opacity:0.251" fill="#928a8a" d="M 283.5,556.5 C 283.466,560.223 282.133,563.223 279.5,565.5C 279.866,563.095 280.533,560.762 281.5,558.5C 281.747,557.287 282.414,556.62 283.5,556.5 Z"/></g>
<g><path style="opacity:0.051" fill="#d8d6d5" d="M 687.5,560.5 C 688.055,564.012 687.388,567.012 685.5,569.5C 685.336,566.813 685.503,564.146 686,561.5C 686.383,560.944 686.883,560.611 687.5,560.5 Z"/></g>
<g><path style="opacity:0.012" fill="#d9d9d7" d="M 487.5,565.5 C 485.786,566.738 483.786,567.405 481.5,567.5C 482.918,565.692 484.918,565.025 487.5,565.5 Z"/></g>
<g><path style="opacity:0.176" fill="#a9a3aa" d="M 481.5,567.5 C 480.167,568.833 478.833,570.167 477.5,571.5C 476.624,571.631 475.957,571.298 475.5,570.5C 476.988,568.423 478.988,567.423 481.5,567.5 Z"/></g>
<g><path style="opacity:0.094" fill="#706f6d" d="M 640.5,565.5 C 639.77,566.712 638.77,567.712 637.5,568.5C 638.563,570.366 637.896,570.866 635.5,570C 636.696,569.346 636.696,568.846 635.5,568.5C 634.201,569.694 632.868,570.694 631.5,571.5C 630.624,571.631 629.957,571.298 629.5,570.5C 631.844,569.663 633.844,568.329 635.5,566.5C 637.045,565.548 638.712,565.215 640.5,565.5 Z"/></g>
<g><path style="opacity:0.004" fill="#fefffe" d="M 521.5,571.5 C 522.167,571.5 522.833,571.5 523.5,571.5C 522.833,574.167 522.167,574.167 521.5,571.5 Z"/></g>
<g><path style="opacity:0.004" fill="#fefffe" d="M 875.5,573.5 C 877.337,573.639 877.67,574.306 876.5,575.5C 875.702,575.043 875.369,574.376 875.5,573.5 Z"/></g>
<g><path style="opacity:0.004" fill="#fefffe" d="M 971.5,585.5 C 973.337,585.639 973.67,586.306 972.5,587.5C 971.702,587.043 971.369,586.376 971.5,585.5 Z"/></g>
<g><path style="opacity:0.004" fill="#fefffe" d="M 933.5,589.5 C 935.337,589.639 935.67,590.306 934.5,591.5C 933.702,591.043 933.369,590.376 933.5,589.5 Z"/></g>
<g><path style="opacity:0.004" fill="#fefffe" d="M 327.5,591.5 C 329.337,591.639 329.67,592.306 328.5,593.5C 327.702,593.043 327.369,592.376 327.5,591.5 Z"/></g>
<g><path style="opacity:0.004" fill="#fefffe" d="M 829.5,593.5 C 831.337,593.639 831.67,594.306 830.5,595.5C 829.702,595.043 829.369,594.376 829.5,593.5 Z"/></g>
<g><path style="opacity:0.004" fill="#fefffe" d="M 443.5,599.5 C 445.337,599.639 445.67,600.306 444.5,601.5C 443.702,601.043 443.369,600.376 443.5,599.5 Z"/></g>
<g><path style="opacity:0.004" fill="#fefffe" d="M 873.5,599.5 C 875.337,599.639 875.67,600.306 874.5,601.5C 873.702,601.043 873.369,600.376 873.5,599.5 Z"/></g>
<g><path style="opacity:0.004" fill="#fefffe" d="M 183.5,637.5 C 185.337,637.639 185.67,638.306 184.5,639.5C 183.702,639.043 183.369,638.376 183.5,637.5 Z"/></g>
<g><path style="opacity:0.004" fill="#fefffe" d="M 145.5,661.5 C 147.337,661.639 147.67,662.306 146.5,663.5C 145.702,663.043 145.369,662.376 145.5,661.5 Z"/></g>
<g><path style="opacity:0.004" fill="#fefffe" d="M 361.5,665.5 C 363.337,665.639 363.67,666.306 362.5,667.5C 361.702,667.043 361.369,666.376 361.5,665.5 Z"/></g>
<g><path style="opacity:0.004" fill="#fefffe" d="M 291.5,667.5 C 293.337,667.639 293.67,668.306 292.5,669.5C 291.702,669.043 291.369,668.376 291.5,667.5 Z"/></g>
<g><path style="opacity:0.004" fill="#fefffe" d="M 607.5,677.5 C 609.337,677.639 609.67,678.306 608.5,679.5C 607.702,679.043 607.369,678.376 607.5,677.5 Z"/></g>
<g><path style="opacity:0.004" fill="#fefffe" d="M 437.5,693.5 C 439.337,693.639 439.67,694.306 438.5,695.5C 437.702,695.043 437.369,694.376 437.5,693.5 Z"/></g>
<g><path style="opacity:0.004" fill="#fefffe" d="M 671.5,705.5 C 673.337,705.639 673.67,706.306 672.5,707.5C 671.702,707.043 671.369,706.376 671.5,705.5 Z"/></g>
<g><path style="opacity:0.004" fill="#fefffe" d="M 263.5,713.5 C 265.337,713.639 265.67,714.306 264.5,715.5C 263.702,715.043 263.369,714.376 263.5,713.5 Z"/></g>
<g><path style="opacity:0.004" fill="#fefffe" d="M 979.5,713.5 C 981.337,713.639 981.67,714.306 980.5,715.5C 979.702,715.043 979.369,714.376 979.5,713.5 Z"/></g>
<g><path style="opacity:0.004" fill="#fefffe" d="M 485.5,717.5 C 487.337,717.639 487.67,718.306 486.5,719.5C 485.702,719.043 485.369,718.376 485.5,717.5 Z"/></g>
<g><path style="opacity:0.004" fill="#fefffe" d="M 483.5,733.5 C 485.337,733.639 485.67,734.306 484.5,735.5C 483.702,735.043 483.369,734.376 483.5,733.5 Z"/></g>
<g><path style="opacity:0.004" fill="#fefffe" d="M 89.5,737.5 C 91.337,737.639 91.6704,738.306 90.5,739.5C 89.7025,739.043 89.3691,738.376 89.5,737.5 Z"/></g>
<g><path style="opacity:0.004" fill="#fefffe" d="M 623.5,739.5 C 625.337,739.639 625.67,740.306 624.5,741.5C 623.702,741.043 623.369,740.376 623.5,739.5 Z"/></g>
<g><path style="opacity:0.004" fill="#fefffe" d="M 571.5,795.5 C 573.337,795.639 573.67,796.306 572.5,797.5C 571.702,797.043 571.369,796.376 571.5,795.5 Z"/></g>
<g><path style="opacity:0.004" fill="#fefffe" d="M 341.5,799.5 C 343.337,799.639 343.67,800.306 342.5,801.5C 341.702,801.043 341.369,800.376 341.5,799.5 Z"/></g>
<g><path style="opacity:0.004" fill="#fefffe" d="M 251.5,819.5 C 253.337,819.639 253.67,820.306 252.5,821.5C 251.702,821.043 251.369,820.376 251.5,819.5 Z"/></g>
<g><path style="opacity:0.004" fill="#fefffe" d="M 111.5,835.5 C 113.337,835.639 113.67,836.306 112.5,837.5C 111.702,837.043 111.369,836.376 111.5,835.5 Z"/></g>
<g><path style="opacity:0.004" fill="#fefffe" d="M 61.5,853.5 C 63.337,853.639 63.6704,854.306 62.5,855.5C 61.7025,855.043 61.3691,854.376 61.5,853.5 Z"/></g>
<g><path style="opacity:0.004" fill="#fefffe" d="M 471.5,881.5 C 473.337,881.639 473.67,882.306 472.5,883.5C 471.702,883.043 471.369,882.376 471.5,881.5 Z"/></g>
<g><path style="opacity:0.004" fill="#fefffe" d="M 543.5,881.5 C 545.337,881.639 545.67,882.306 544.5,883.5C 543.702,883.043 543.369,882.376 543.5,881.5 Z"/></g>
<g><path style="opacity:0.004" fill="#fefffe" d="M 715.5,887.5 C 717.337,887.639 717.67,888.306 716.5,889.5C 715.702,889.043 715.369,888.376 715.5,887.5 Z"/></g>
<g><path style="opacity:0.004" fill="#fefffe" d="M 39.5,921.5 C 41.337,921.639 41.6704,922.306 40.5,923.5C 39.7025,923.043 39.3691,922.376 39.5,921.5 Z"/></g>
<g><path style="opacity:0.004" fill="#fefffe" d="M 735.5,939.5 C 737.337,939.639 737.67,940.306 736.5,941.5C 735.702,941.043 735.369,940.376 735.5,939.5 Z"/></g>
<g><path style="opacity:0.004" fill="#fefffe" d="M 735.5,945.5 C 737.337,945.639 737.67,946.306 736.5,947.5C 735.702,947.043 735.369,946.376 735.5,945.5 Z"/></g>
<g><path style="opacity:0.004" fill="#fefffe" d="M 747.5,987.5 C 749.337,987.639 749.67,988.306 748.5,989.5C 747.702,989.043 747.369,988.376 747.5,987.5 Z"/></g>
<g><path style="opacity:0.004" fill="#fefffe" d="M 35.5,993.5 C 37.337,993.639 37.6704,994.306 36.5,995.5C 35.7025,995.043 35.3691,994.376 35.5,993.5 Z"/></g>
<g><path style="opacity:0.004" fill="#fefffe" d="M 373.5,993.5 C 375.337,993.639 375.67,994.306 374.5,995.5C 373.702,995.043 373.369,994.376 373.5,993.5 Z"/></g>
</svg>
